# xmcd
#
# Track frame offsets:
#	150
#	18304
#	36688
#	49803
#	62376
#	76793
#	98097
#	118004
#	135841
#	154910
#	167906
#	195039
#
# Disc length: 2816 seconds
#
# Revision: 1
# Processed by: cddbd v1.5.2PL0 Copyright (c) Steve Scherf et al.
# Submitted via: audiograbber 1.83.01
#
DISCID=8d0afe0c
DTITLE=Helm, Hudson and Mccoy - Angel Serenade
DYEAR=2008
DGENRE=Country-Rock
TTITLE0=Ace In The Hole
TTITLE1=Sentenced To Love
TTITLE2=You're The Only Thing
TTITLE3=Angels Serenade
TTITLE4=I Stood There Like A Stone
TTITLE5=Hey Now
TTITLE6=Spanish Moon
TTITLE7=Blue Water Runs Deep
TTITLE8=Something 'Bout The Smokies
TTITLE9=Talkin' To Myself
TTITLE10=Runaway Train
TTITLE11=I'm Your Toy (Hot Burrito #1)
EXTD=
EXTT0=
EXTT1=
EXTT2=
EXTT3=
EXTT4=
EXTT5=
EXTT6=
EXTT7=
EXTT8=
EXTT9=
EXTT10=
EXTT11=
PLAYORDER=
